<?xml version="1.0" standalone="no"?>
<!DOCTYPE svg PUBLIC "-//W3C//DTD SVG 20010904//EN"
 "http://www.w3.org/TR/2001/REC-SVG-20010904/DTD/svg10.dtd">
<svg version="1.0" xmlns="http://www.w3.org/2000/svg"
 width="200.000000pt" height="200.000000pt" viewBox="0 0 200.000000 200.000000"
 preserveAspectRatio="xMidYMid meet">
<metadata>
Created by potrace 1.13, written by Peter Selinger 2001-2015
</metadata>
<g transform="translate(0.000000,200.000000) scale(0.100000,-0.100000)"
fill="#000000" stroke="none">
<path d="M940 1926 c-39 -10 -820 -285 -828 -291 -2 -2 4 -58 12 -126 9 -68
25 -207 36 -309 12 -102 30 -255 40 -340 10 -85 24 -206 31 -267 l12 -113 266
-146 c146 -81 312 -173 369 -205 l102 -58 103 58 c56 32 222 124 368 205 l266
146 12 113 c7 61 21 182 31 267 10 85 28 238 40 340 11 102 27 241 36 309 8
68 14 124 12 126 -5 3 -856 305 -860 304 -1 0 -23 -6 -48 -13z m160 -458 c62
-139 182 -406 267 -593 84 -187 153 -343 153 -347 0 -5 -46 -8 -103 -8 l-102
0 -55 136 -55 135 -225 0 -225 0 -55 -135 -55 -136 -102 0 c-57 0 -103 3 -103
8 0 4 69 160 153 347 85 187 205 454 267 593 62 138 116 252 120 252 4 0 58
-114 120 -252z"/>
<path d="M904 1143 c-38 -91 -70 -170 -72 -175 -2 -4 65 -8 148 -8 83 0 150 4
148 8 -48 123 -143 342 -148 342 -3 0 -38 -75 -76 -167z"/>
</g>
</svg>
