<?xml version="1.0" standalone="no"?>
<!DOCTYPE svg PUBLIC "-//W3C//DTD SVG 20010904//EN"
 "http://www.w3.org/TR/2001/REC-SVG-20010904/DTD/svg10.dtd">
<svg version="1.0" xmlns="http://www.w3.org/2000/svg"
 width="298.000000pt" height="420.000000pt" viewBox="0 0 298.000000 420.000000"
 preserveAspectRatio="xMidYMid meet">
<metadata>
Created by potrace 1.13, written by Peter Selinger 2001-2015
</metadata>
<g transform="translate(0.000000,420.000000) scale(0.100000,-0.100000)"
fill="#000000" stroke="none">
<path d="M635 4187 c-3 -7 -4 -134 -3 -282 l3 -270 228 -3 227 -2 0 80 0 79
-132 3 -133 3 0 120 0 120 133 3 132 3 0 79 0 80 -225 0 c-173 0 -227 -3 -230
-13z"/>
<path d="M1190 4132 l0 -67 124 -135 124 -135 -124 -3 -124 -3 0 -79 0 -80
265 0 265 0 0 68 -1 67 -125 135 -125 135 120 3 121 3 0 79 0 80 -260 0 -260
0 0 -68z"/>
<path d="M1810 4134 l0 -66 126 -136 126 -137 -126 -3 -126 -3 0 -79 0 -80
265 0 265 0 0 68 0 68 -124 135 -124 134 119 3 119 3 0 79 0 80 -260 0 -260 0
0 -66z"/>
<path d="M5 3323 c3 -27 64 -707 136 -1513 71 -806 133 -1468 137 -1471 4 -4
277 -81 607 -173 l600 -166 608 168 c527 145 608 170 612 187 5 24 265 2960
265 2993 l0 22 -1485 0 -1486 0 6 -47z m2415 -585 c0 -39 -160 -1862 -164
-1864 -13 -6 -750 -205 -763 -206 -18 0 -760 205 -767 213 -3 3 -56 555 -56
582 0 6 379 11 380 5 1 -2 7 -67 14 -146 7 -78 15 -144 17 -147 9 -8 376 -105
400 -105 16 0 398 96 415 104 2 1 44 450 44 466 0 7 -151 10 -433 10 l-434 0
-12 143 c-6 78 -14 163 -18 190 l-6 47 470 0 470 0 12 163 c7 89 15 172 18
184 l5 23 -713 2 -714 3 -12 140 c-6 77 -14 161 -17 188 l-5 47 934 0 935 0 0
-42z"/>
</g>
</svg>
