<?xml version="1.0" standalone="no"?>
<!DOCTYPE svg PUBLIC "-//W3C//DTD SVG 20010904//EN"
 "http://www.w3.org/TR/2001/REC-SVG-20010904/DTD/svg10.dtd">
<svg version="1.0" xmlns="http://www.w3.org/2000/svg"
 width="364.000000pt" height="512.000000pt" viewBox="0 0 364.000000 512.000000"
 preserveAspectRatio="xMidYMid meet">
<metadata>
Created by potrace 1.13, written by Peter Selinger 2001-2015
</metadata>
<g transform="translate(0.000000,512.000000) scale(0.100000,-0.100000)"
fill="#000000" stroke="none">
<path d="M340 4775 l0 -346 118 3 c95 2 117 6 118 18 1 8 2 59 3 113 l1 97
100 0 100 0 1 -97 c1 -54 2 -105 3 -113 1 -12 23 -16 119 -18 l117 -3 0 346 0
345 -121 0 -120 0 1 -97 c1 -54 1 -106 1 -115 -1 -16 -13 -18 -101 -18 -88 0
-100 2 -101 18 0 9 0 61 1 115 l1 97 -120 0 -121 0 0 -345z"/>
<path d="M1112 5008 l3 -113 103 -3 102 -3 0 -229 0 -230 115 0 115 0 0 230 0
230 105 0 105 0 0 115 0 115 -326 0 -325 0 3 -112z"/>
<path d="M1850 4775 l1 -345 114 0 115 0 2 166 3 167 75 -117 c41 -64 78 -116
82 -116 3 0 40 53 82 117 l76 117 0 -167 0 -167 115 0 115 0 0 345 0 346 -122
-3 -121 -3 -69 -113 c-39 -61 -73 -110 -77 -108 -4 3 -38 55 -76 116 l-68 110
-124 0 -123 0 0 -345z"/>
<path d="M2742 4778 l3 -343 282 -3 282 -2 0 115 -1 115 -164 0 -164 0 0 230
0 230 -120 0 -120 0 2 -342z"/>
<path d="M10 4103 c0 -34 329 -3685 332 -3688 2 -3 335 -96 740 -209 l736
-204 738 205 c406 112 740 206 742 208 3 2 332 3659 332 3688 0 4 -814 7
-1810 7 -996 0 -1810 -3 -1810 -7z m2946 -805 c-4 -35 -9 -97 -12 -138 -2 -41
-9 -111 -14 -155 -5 -44 -9 -86 -9 -92 -1 -10 -182 -13 -871 -13 l-870 0 4
-22 c3 -13 13 -116 22 -230 l17 -208 829 0 828 0 -6 -62 c-2 -35 -7 -89 -9
-121 -2 -32 -6 -70 -9 -85 -3 -15 -8 -72 -11 -126 -4 -75 -3 -102 7 -109 9 -6
8 -7 -4 -3 -15 4 -17 -2 -15 -54 1 -32 -1 -56 -5 -53 -5 2 -9 -22 -10 -54 -1
-32 -3 -78 -4 -103 -1 -25 -4 -52 -7 -60 -3 -8 -10 -82 -17 -165 -6 -82 -13
-167 -16 -188 -4 -30 -2 -37 8 -31 10 6 10 4 -1 -9 -7 -9 -11 -26 -8 -37 3
-11 1 -20 -4 -20 -5 0 -9 -27 -9 -60 l0 -60 -45 -12 c-25 -7 -45 -15 -45 -19
0 -4 -9 -5 -20 -2 -12 3 -20 0 -20 -6 0 -7 -4 -10 -9 -7 -5 3 -64 -10 -132
-30 -68 -20 -130 -36 -137 -36 -7 -1 -10 -9 -7 -22 5 -19 5 -19 -5 -4 -6 10
-16 18 -21 18 -6 0 -8 -4 -5 -9 3 -4 -5 -8 -17 -7 -28 1 -167 -34 -167 -43 0
-3 -10 -6 -22 -7 -41 -2 -129 -30 -121 -39 5 -4 2 -5 -4 -1 -7 4 -46 -2 -87
-14 l-74 -20 -467 129 c-257 71 -468 131 -470 133 -1 2 -15 138 -29 303 -14
165 -29 326 -32 358 l-7 57 235 0 234 0 13 -167 c8 -93 17 -175 21 -183 5 -9
102 -40 252 -81 l243 -65 105 28 c58 15 112 31 120 34 8 4 24 8 35 10 17 2
174 44 228 61 9 3 17 10 17 17 0 6 4 52 9 101 5 50 12 126 16 170 10 122 13
154 21 227 l7 68 -783 0 c-431 0 -785 2 -787 4 -5 4 -122 1302 -123 1349 l0
27 1141 0 1141 0 -6 -62z"/>
</g>
</svg>
