<?xml version="1.0" standalone="no"?>
<!DOCTYPE svg PUBLIC "-//W3C//DTD SVG 20010904//EN"
 "http://www.w3.org/TR/2001/REC-SVG-20010904/DTD/svg10.dtd">
<svg version="1.0" xmlns="http://www.w3.org/2000/svg"
 width="600.000000pt" height="846.000000pt" viewBox="0 0 600.000000 846.000000"
 preserveAspectRatio="xMidYMid meet">
<metadata>
Created by potrace 1.13, written by Peter Selinger 2001-2015
</metadata>
<g transform="translate(0.000000,846.000000) scale(0.100000,-0.100000)"
fill="#000000" stroke="none">
<path d="M2458 8098 l-3 -363 -313 -3 -312 -2 2 -198 3 -197 523 -3 522 -2 0
565 0 565 -210 0 -210 0 -2 -362z"/>
<path d="M3080 8251 l0 -209 225 -168 c124 -93 225 -172 225 -177 0 -4 -6 -7
-12 -6 -7 1 -109 1 -225 0 l-213 -1 0 -180 0 -180 535 0 535 0 0 183 0 184
-62 48 c-35 27 -151 117 -258 200 l-195 150 258 3 257 2 0 180 0 180 -535 0
-535 0 0 -209z"/>
<path d="M4 6763 c3 -27 10 -102 16 -168 5 -66 14 -163 19 -215 6 -53 15 -154
21 -225 5 -72 19 -229 30 -350 11 -121 24 -271 30 -332 5 -62 15 -166 21 -230
5 -65 14 -167 19 -228 10 -120 25 -282 39 -445 6 -58 17 -184 25 -280 16 -177
28 -309 46 -512 6 -62 24 -266 40 -453 16 -187 34 -387 40 -445 5 -58 19 -211
30 -340 40 -454 59 -676 70 -785 15 -172 28 -308 40 -455 7 -74 22 -243 34
-374 l21 -239 135 -39 c74 -21 167 -47 205 -58 126 -34 208 -57 360 -100 83
-23 197 -55 255 -70 58 -16 130 -36 160 -44 30 -9 71 -21 90 -26 19 -5 98 -28
175 -49 145 -41 280 -79 400 -111 39 -10 120 -33 180 -50 115 -33 131 -37 338
-94 70 -19 132 -38 137 -41 10 -6 46 3 555 145 94 26 271 75 395 110 124 34
268 75 320 90 52 15 133 38 180 50 47 12 99 26 115 31 17 5 95 27 175 49 80
22 163 45 185 51 22 7 54 15 70 20 17 5 53 15 80 23 28 8 127 36 220 62 94 26
173 52 176 57 3 5 9 43 12 85 4 42 13 151 21 242 16 168 29 317 46 515 6 61
15 162 20 225 6 63 15 162 20 220 14 144 26 284 50 560 11 129 25 282 30 340
6 58 19 211 31 340 17 206 40 456 54 615 3 28 14 156 25 285 11 129 25 280 30
335 9 89 16 168 50 565 11 133 44 498 70 790 11 124 25 275 30 335 26 305 50
569 56 614 l7 51 -3003 0 -3003 0 7 -47z m4876 -1246 c0 -13 -4 -59 -9 -103
-5 -43 -15 -137 -21 -209 -6 -71 -15 -173 -20 -225 -6 -52 -12 -126 -14 -165
-2 -38 -7 -90 -10 -115 -3 -25 -15 -151 -26 -280 -11 -129 -24 -283 -30 -342
-18 -193 -29 -321 -40 -443 -6 -66 -15 -165 -20 -220 -19 -198 -30 -324 -50
-555 -30 -349 -39 -455 -50 -565 -6 -55 -17 -181 -26 -280 -9 -99 -19 -206
-23 -239 l-6 -59 -105 -28 c-58 -16 -118 -33 -135 -37 -16 -5 -48 -14 -70 -21
-22 -6 -69 -20 -104 -31 -35 -11 -73 -20 -83 -20 -10 0 -26 -4 -36 -9 -9 -6
-55 -20 -102 -32 -47 -12 -107 -29 -135 -37 -27 -7 -66 -18 -85 -22 -19 -5
-51 -13 -70 -19 -88 -25 -188 -54 -215 -61 -29 -8 -75 -21 -202 -56 -204 -56
-193 -54 -258 -38 -33 9 -123 33 -200 55 -205 57 -196 55 -385 108 -96 26
-229 63 -295 81 -66 18 -138 38 -160 45 -22 7 -101 29 -175 49 -279 76 -270
72 -270 111 0 19 -11 159 -25 312 -14 153 -34 382 -45 508 -11 127 -22 251
-25 278 l-6 47 381 0 c209 0 380 -1 381 -2 0 -2 4 -50 8 -108 17 -199 43 -485
46 -488 2 -2 54 -17 116 -33 125 -33 384 -103 439 -119 267 -76 270 -76 347
-56 37 10 83 20 101 23 18 3 35 9 38 14 3 5 14 9 25 9 11 0 48 9 82 19 34 10
134 38 222 61 88 23 193 52 233 63 l72 22 0 38 c0 34 21 287 49 592 6 61 15
166 21 235 6 69 15 175 20 235 5 61 14 166 20 235 6 69 15 175 20 235 6 61 14
164 20 230 17 191 30 342 40 455 5 58 12 133 15 168 l5 62 -1435 0 c-789 0
-1435 4 -1435 8 0 13 -29 343 -45 515 -8 86 -15 173 -15 192 l0 35 1880 0
1880 0 0 -23z"/>
</g>
</svg>
