<?xml version="1.0" standalone="no"?>
<!DOCTYPE svg PUBLIC "-//W3C//DTD SVG 20010904//EN"
 "http://www.w3.org/TR/2001/REC-SVG-20010904/DTD/svg10.dtd">
<svg version="1.0" xmlns="http://www.w3.org/2000/svg"
 width="230.000000pt" height="244.000000pt" viewBox="0 0 230.000000 244.000000"
 preserveAspectRatio="xMidYMid meet">
<metadata>
Created by potrace 1.13, written by Peter Selinger 2001-2015
</metadata>
<g transform="translate(0.000000,244.000000) scale(0.100000,-0.100000)"
fill="#000000" stroke="none">
<path d="M1424 2223 c3 -10 8 -35 12 -55 l6 -38 57 -1 56 -2 -73 -8 c-90 -11
-236 -59 -319 -105 -143 -80 -272 -205 -379 -369 -62 -97 -207 -384 -258 -514
-48 -121 -99 -299 -125 -434 -26 -133 -47 -369 -37 -419 l7 -38 496 0 c467 0
495 1 490 18 -3 9 -22 62 -41 117 -98 279 -142 583 -117 805 24 209 99 370
236 505 131 130 262 196 406 203 104 5 174 -12 249 -63 49 -33 53 -34 66 -18
37 49 29 60 -104 154 -123 86 -265 143 -393 157 l-61 7 -4 45 c-6 71 -5 70
-94 70 -73 0 -81 -2 -76 -17z"/>
<path d="M1043 2148 c-29 -16 -53 -33 -53 -36 0 -4 20 -29 43 -56 l44 -49 56
32 c31 18 59 35 61 39 5 8 -81 102 -92 101 -4 0 -31 -14 -59 -31z"/>
<path d="M638 1806 c-27 -29 -48 -56 -48 -59 0 -8 116 -87 128 -87 9 0 102
103 102 113 0 6 -124 87 -131 86 -2 -1 -25 -25 -51 -53z"/>
<path d="M1401 1636 l-34 -35 41 -49 c65 -77 65 -77 91 -31 l23 40 -36 55
c-20 30 -40 54 -44 54 -5 0 -23 -15 -41 -34z"/>
<path d="M351 1347 c-5 -12 -18 -48 -30 -80 -16 -43 -18 -59 -8 -62 6 -3 47
-16 89 -29 l77 -24 21 55 c34 92 35 90 -58 128 l-83 34 -8 -22z"/>
<path d="M1267 1314 l-22 -46 60 -54 c33 -30 63 -54 66 -54 6 0 29 91 29 114
0 10 -92 86 -105 86 -3 0 -15 -21 -28 -46z"/>
<path d="M1240 978 c0 -24 -3 -52 -6 -64 -5 -17 5 -25 67 -52 39 -18 76 -32
80 -32 5 0 9 27 9 60 l0 60 -70 35 c-38 19 -72 35 -75 35 -3 0 -5 -19 -5 -42z"/>
<path d="M167 709 c-4 -19 -9 -62 -13 -96 l-6 -61 78 -8 c44 -5 86 -9 94 -9
11 0 19 24 32 95 9 52 15 96 14 98 -2 1 -46 5 -98 9 l-95 6 -6 -34z"/>
<path d="M1295 528 c4 -18 13 -48 20 -68 l12 -35 94 -7 c52 -3 96 -4 98 -2 3
2 -11 36 -29 74 l-34 70 -84 0 -84 0 7 -32z"/>
</g>
</svg>
